<svg id="behance-logo" xmlns="http://www.w3.org/2000/svg" viewBox="0 0 25.628 16.204">
  <defs>
    <style>
      .cls-1 {
        fill: #fff;
      }
    </style>
  </defs>
  <path id="Behance" class="cls-1" d="M23.144,83.54H16.723V81.919h6.422V83.54Zm-10.7,6.647a4.338,4.338,0,0,1,.621,2.374,4.784,4.784,0,0,1-.708,2.586,4.459,4.459,0,0,1-1.128,1.273,4.326,4.326,0,0,1-1.8.814,10.956,10.956,0,0,1-2.251.219H0v-16.2H7.7c1.941.032,3.317.6,4.13,1.726a4.171,4.171,0,0,1,.729,2.474,3.646,3.646,0,0,1-.737,2.386,3.766,3.766,0,0,1-1.214.922A3.549,3.549,0,0,1,12.448,90.187Zm-8.77-2.551H7.052a3.157,3.157,0,0,0,1.686-.4,1.54,1.54,0,0,0,.647-1.425,1.453,1.453,0,0,0-.857-1.495,5.934,5.934,0,0,0-1.882-.253H3.678Zm6.032,4.693a1.741,1.741,0,0,0-1.014-1.736A3.939,3.939,0,0,0,7.1,90.318H3.678v4.318h3.37a3.692,3.692,0,0,0,1.615-.284A2.051,2.051,0,0,0,9.709,92.329Zm15.817-2.636a15.487,15.487,0,0,1,.1,2.3H17.308A2.788,2.788,0,0,0,18.5,94.446a2.97,2.97,0,0,0,1.646.436,2.485,2.485,0,0,0,1.657-.533,2.526,2.526,0,0,0,.613-.8h3.048a3.793,3.793,0,0,1-1.106,2.1,5.5,5.5,0,0,1-4.3,1.695,6.173,6.173,0,0,1-4.024-1.428Q14.3,94.486,14.3,91.268a6.346,6.346,0,0,1,1.572-4.628,5.462,5.462,0,0,1,4.086-1.61,6.423,6.423,0,0,1,2.686.543,4.647,4.647,0,0,1,1.972,1.719A5.784,5.784,0,0,1,25.526,89.693Zm-3,.3a2.435,2.435,0,0,0-2.568-2.463,2.347,2.347,0,0,0-1.782.666,3.151,3.151,0,0,0-.8,1.8h5.146Z" transform="translate(0 -81.247)"/>
</svg>
