<svg xmlns="http://www.w3.org/2000/svg" viewBox="0 0 16.614 16.207">
  <defs>
    <style>
      .cls-1 {
        fill: #fff;
      }
    </style>
  </defs>
  <g id="github-logo" transform="translate(0 0)">
    <path id="Tracé_1" data-name="Tracé 1" class="cls-1" d="M15.5,9.5a8.271,8.271,0,0,0-3.023-3.023,8.125,8.125,0,0,0-4.17-1.114,8.126,8.126,0,0,0-4.17,1.114A8.27,8.27,0,0,0,1.114,9.5,8.126,8.126,0,0,0,0,13.672a8.073,8.073,0,0,0,1.585,4.883,8.136,8.136,0,0,0,4.094,3,.484.484,0,0,0,.433-.076.423.423,0,0,0,.141-.324q0-.032-.005-.584t-.005-.962l-.249.043a3.174,3.174,0,0,1-.6.038,4.574,4.574,0,0,1-.752-.076,1.68,1.68,0,0,1-.725-.324,1.372,1.372,0,0,1-.476-.665l-.108-.249a2.7,2.7,0,0,0-.341-.552,1.305,1.305,0,0,0-.47-.411l-.076-.054a.794.794,0,0,1-.141-.13.593.593,0,0,1-.1-.151q-.033-.076.054-.125a.7.7,0,0,1,.314-.048l.216.032a1.579,1.579,0,0,1,.535.26,1.746,1.746,0,0,1,.525.562,1.907,1.907,0,0,0,.6.676,1.273,1.273,0,0,0,.708.232,3.076,3.076,0,0,0,.617-.054,2.151,2.151,0,0,0,.487-.162,1.752,1.752,0,0,1,.53-1.114,7.406,7.406,0,0,1-1.109-.195,4.414,4.414,0,0,1-1.017-.422A2.912,2.912,0,0,1,3.8,16a3.483,3.483,0,0,1-.568-1.136,5.4,5.4,0,0,1-.222-1.622,3.155,3.155,0,0,1,.855-2.228A2.908,2.908,0,0,1,3.937,8.8a1.516,1.516,0,0,1,.93.146,6.5,6.5,0,0,1,.9.416q.287.173.46.292a7.811,7.811,0,0,1,4.154,0l.411-.259a5.821,5.821,0,0,1,.995-.476,1.417,1.417,0,0,1,.876-.119,2.88,2.88,0,0,1,.086,2.206,3.155,3.155,0,0,1,.855,2.228,5.461,5.461,0,0,1-.222,1.628A3.347,3.347,0,0,1,12.812,16a3.024,3.024,0,0,1-.876.719,4.423,4.423,0,0,1-1.017.422,7.4,7.4,0,0,1-1.109.195,1.926,1.926,0,0,1,.562,1.536v2.282a.431.431,0,0,0,.135.324.47.47,0,0,0,.427.076,8.135,8.135,0,0,0,4.094-3,8.075,8.075,0,0,0,1.584-4.883A8.132,8.132,0,0,0,15.5,9.5Z" transform="translate(0 -5.365)"/>
  </g>
</svg>
