<svg id="linkedin-logo" xmlns="http://www.w3.org/2000/svg" viewBox="0 0 17.424 16.204">
  <defs>
    <style>
      .cls-1 {
        fill: #fff;
      }
    </style>
  </defs>
  <path id="LinkedIn" class="cls-1" d="M17.424,19.493v6.269H13.69v-5.85c0-1.469-.54-2.472-1.892-2.472a2.039,2.039,0,0,0-1.916,1.33,2.425,2.425,0,0,0-.124.886v6.106H6.022s.05-9.907,0-10.934H9.757v1.55l-.025.035h.025v-.035a3.726,3.726,0,0,1,3.367-1.807C15.582,14.572,17.424,16.134,17.424,19.493ZM2.114,9.558a1.9,1.9,0,1,0-.05,3.779h.025a1.9,1.9,0,1,0,.025-3.779ZM.222,25.762H3.956V14.829H.222Z" transform="translate(0 -9.558)"/>
</svg>
