<svg xmlns="http://www.w3.org/2000/svg" viewBox="0 0 24.19 16.204">
  <defs>
    <style>
      .cls-1 {
        fill: #fff;
      }
    </style>
  </defs>
  <path id="youtube-logo" class="cls-1" d="M23.985,77.318c-.135-1.517-1.095-3.431-3.068-3.5a130.928,130.928,0,0,0-17.646,0C1.53,74,.337,76,.207,77.517a40.717,40.717,0,0,0,0,8.189c.132,1.517,1.294,3.526,3.066,3.737a138.885,138.885,0,0,0,17.646,0c1.718-.281,2.935-2.22,3.066-3.737A42.838,42.838,0,0,0,23.985,77.318ZM9.071,85.654V77.483l7.56,4.086Z" transform="translate(-0.001 -73.52)"/>
</svg>
